<svg xmlns="http://www.w3.org/2000/svg" width="800" height="619.278" viewBox="0 0 800 619.278"><path fill="#fff" d="M636.6 385.848c-69.278 51.8-136.479 83.226-202.548 103.791-16.36-22.428-30.832-46.336-43.353-71.4a425 425 0 0 0 68.396-33.29 411 411 0 0 1-16.737-13.24c-130.061 61.568-273.085 61.568-404.719 0a340 340 0 0 1-16.737 13.24c21.582 12.981 44.423 24.164 68.27 33.225-12.52 25.129-27.056 48.972-43.353 71.401-66.005-20.565-133.144-51.992-202.422-103.727-14.157-151.734 14.158-305.654 118.61-463.494a649.4 649.4 0 0 1 165.172-51.993c7.173 12.854 15.667 30.142 21.393 43.895q90.609-13.881 182.916 0c5.726-13.753 14.032-31.041 21.142-43.895a651.6 651.6 0 0 1 165.046 51.864C608.222 57.443 653.212 209.95 636.6 385.848M179.027 210.72c.692-44.987-31.713-81.876-71.921-81.876-40.207 0-71.92 36.953-71.92 81.876s32.405 81.813 71.92 81.813c40.208 0 71.983-36.89 71.92-81.813m265.785 0c.692-44.987-31.714-81.876-71.92-81.876-40.209 0-71.921 36.953-71.921 81.876s32.405 81.813 71.92 81.813c40.207 0 71.921-36.89 71.921-81.813" data-paper-data="{&quot;isPaintingLayer&quot;:true}" style="mix-blend-mode:normal" transform="translate(160 129.639)"/></svg>