<?xml version="1.0" encoding="UTF-8" standalone="no"?>
<svg
   id="svg1"
   width="800"
   height="800"
   fill="none"
   viewBox="0 0 24 24"
   version="1.1"
   sodipodi:docname="email.svg"
   inkscape:version="1.4 (86a8ad7, 2024-10-11)"
   xmlns:inkscape="http://www.inkscape.org/namespaces/inkscape"
   xmlns:sodipodi="http://sodipodi.sourceforge.net/DTD/sodipodi-0.dtd"
   xmlns="http://www.w3.org/2000/svg"
   xmlns:svg="http://www.w3.org/2000/svg">
  <defs
     id="defs1" />
  <sodipodi:namedview
     id="namedview1"
     pagecolor="#ffffff"
     bordercolor="#000000"
     borderopacity="0.25"
     inkscape:showpageshadow="2"
     inkscape:pageopacity="0.0"
     inkscape:pagecheckerboard="0"
     inkscape:deskcolor="#d1d1d1"
     inkscape:zoom="0.68324193"
     inkscape:cx="212.22351"
     inkscape:cy="452.98742"
     inkscape:window-width="1920"
     inkscape:window-height="991"
     inkscape:window-x="-9"
     inkscape:window-y="-9"
     inkscape:window-maximized="1"
     inkscape:current-layer="svg1" />
  <path
     id="path1"
     stroke="#000"
     stroke-linecap="round"
     stroke-linejoin="round"
     stroke-width="2.48591"
     d="m 2.4406,21.461205 5.9746266,-6.46448 m 13.1441784,6.46448 -5.974626,-6.46448 M 1.2791326,9.8251405 9.87901,16.053021 c 0.765948,0.552065 1.149519,0.828745 1.564158,0.936055 a 2.3898508,2.585792 0 0 0 1.113669,0 c 0.413445,-0.107312 0.797018,-0.38399 1.564158,-0.936055 L 22.718483,9.8251405 M 9.9662399,2.1569742 3.0356728,6.8657016 C 2.3820487,7.3104577 2.0558341,7.5315431 1.818044,7.8327878 a 2.3898508,2.585792 0 0 0 -0.4636311,0.907613 c -0.108738,0.3762327 -0.108738,0.793838 -0.108738,1.6290492 v 8.247382 c 0,1.448044 0,2.172066 0.2604936,2.725425 a 2.3898508,2.585792 0 0 0 1.0443648,1.129992 C 3.0619613,22.7541 3.7311194,22.7541 5.0694357,22.7541 H 18.930571 c 1.338315,0 2.007475,0 2.5189,-0.281851 a 2.3898508,2.585792 0 0 0 1.044367,-1.129992 c 0.260493,-0.553359 0.260493,-1.277381 0.260493,-2.725425 V 10.36945 c 0,-0.8352112 0,-1.2528165 -0.108744,-1.6290492 A 2.3898508,2.585792 0 0 0 22.181955,7.8327878 C 21.944171,7.5315431 21.617957,7.3104577 20.96314,6.8657016 L 14.032571,2.1569742 C 13.296496,1.6553306 12.927265,1.4045088 12.531746,1.3075415 a 2.3898508,2.585792 0 0 0 -1.063486,0 c -0.39552,0.096968 -0.764751,0.3490819 -1.5020201,0.8494327"
     style="stroke:#ffffff;stroke-opacity:1;stroke-width:1.98;stroke-dasharray:none" />
</svg>
