<svg xmlns="http://www.w3.org/2000/svg" width="1024" height="998.738" viewBox="0 0 1024 998.738"><path fill="#fff" fill-rule="evenodd" d="M752 192.631c0 225.92-146.56 417.92-348.8 485.76-25.6 5.12-35.2-10.88-35.2-24.32 0-17.28.64-72.32.64-140.8 0-48-16-78.72-34.56-94.72 113.92-12.8 233.6-56.32 233.6-252.8 0-56.32-19.84-101.76-52.48-137.6 5.12-12.8 23.04-65.28-5.12-135.68 0 0-42.88-14.08-140.8 52.48-40.96-11.52-84.48-17.28-128-17.28s-87.04 5.76-128 17.28c-97.92-65.92-140.8-52.48-140.8-52.48-28.16 70.4-10.24 122.88-5.12 135.68-32.64 35.84-52.48 81.92-52.48 137.6 0 195.84 119.04 240 232.96 252.8-14.72 12.8-28.16 35.2-32.64 68.48-29.44 13.44-103.04 35.2-149.12-42.24-9.6-15.36-38.4-53.12-78.72-52.48-42.88.64-17.28 24.32.64 33.92 21.76 12.16 46.72 57.6 52.48 72.32 10.24 28.8 43.52 83.84 172.16 60.16 0 42.88.64 83.2.64 95.36 0 13.44-9.6 28.8-35.2 24.32-203.52-67.84-350.08-259.2-350.08-485.76 0-282.88 229.12-512 512-512s512 229.12 512 512" data-paper-data="{&quot;isPaintingLayer&quot;:true}" style="mix-blend-mode:normal" transform="translate(272 319.369)"/></svg>