<svg xmlns="http://www.w3.org/2000/svg" width="95.999" height="96" viewBox="0 0 95.999 96"><path fill="#fff" d="M239.99 132c13.04 0 14.67.057 19.79.29 5.11.234 8.6 1.043 11.66 2.23 3.16 1.225 5.83 2.865 8.5 5.535 2.67 2.668 4.31 5.346 5.54 8.503 1.18 3.052 1.99 6.54 2.23 11.65.23 5.12.29 6.756.29 19.792s-.06 14.668-.29 19.788c-.24 5.108-1.05 8.597-2.23 11.65-1.23 3.156-2.87 5.834-5.54 8.502-2.667 2.67-5.341 4.314-8.497 5.54-3.054 1.187-6.546 1.996-11.656 2.23-5.12.233-6.751.29-19.788.29s-14.67-.057-19.79-.29c-5.11-.234-8.599-1.043-11.653-2.23-3.155-1.226-5.833-2.87-8.5-5.54-2.669-2.668-4.309-5.346-5.536-8.503-1.186-3.052-1.995-6.54-2.23-11.65-.231-5.12-.29-6.751-.29-19.787s.06-14.673.29-19.793c.23-5.108 1.04-8.597 2.23-11.65 1.23-3.156 2.87-5.834 5.54-8.502 2.667-2.669 5.345-4.309 8.502-5.535 3.052-1.187 6.54-1.996 11.65-2.23 5.12-.233 6.757-.29 19.793-.29zm-4.292 8.638c-8.946.01-10.662.07-15.09.27-4.68.215-7.22.995-8.913 1.655-2.24.872-3.84 1.912-5.52 3.592s-2.722 3.28-3.592 5.52c-.657 1.692-1.439 4.232-1.653 8.912-.23 5.06-.276 6.572-.276 19.39s.046 14.338.276 19.398c.213 4.68.996 7.22 1.653 8.91.872 2.241 1.912 3.837 3.592 5.517s3.28 2.72 5.52 3.59c1.693.657 4.233 1.439 8.913 1.655 5.06.23 6.58.28 19.396.28s14.337-.05 19.397-.28c4.68-.214 7.222-.994 8.912-1.654 2.24-.87 3.836-1.91 5.516-3.59s2.722-3.274 3.592-5.514c.657-1.69 1.439-4.23 1.653-8.91.23-5.06.28-6.58.28-19.39s-.05-14.33-.28-19.39c-.213-4.68-.996-7.22-1.653-8.91-.872-2.24-1.912-3.84-3.592-5.52s-3.276-2.72-5.516-3.59c-1.692-.657-4.232-1.439-8.912-1.653-5.061-.23-6.58-.276-19.396-.276-1.602 0-3.028-.002-4.306 0zm29.929 7.98c3.18 0 5.76 2.58 5.76 5.76s-2.58 5.76-5.76 5.76-5.76-2.58-5.76-5.76a5.76 5.76 0 0 1 5.76-5.758zm-25.624 6.732c13.614 0 24.648 11.037 24.648 24.65s-11.033 24.645-24.646 24.645-24.65-11.032-24.65-24.645 11.037-24.65 24.65-24.65zM224.006 180c0 8.836 7.163 16 16 16s16-7.164 16-16-7.164-16-16-16-16 7.163-16 16" data-paper-data="{&quot;isPaintingLayer&quot;:true}" style="mix-blend-mode:normal" transform="translate(-192 -132)"/></svg>